<svg width="20" height="20" viewBox="0 0 20 20" fill="none" xmlns="http://www.w3.org/2000/svg">
<path d="M0.246397 14.7588C0.168322 14.6813 0.106354 14.5892 0.064064 14.4877C0.0217724 14.3862 0 14.2773 0 14.1674C0 14.0574 0.0217724 13.9485 0.064064 13.847C0.106354 13.7455 0.168322 13.6534 0.246397 13.5759L9.40929 4.41304C9.48673 4.33497 9.57885 4.273 9.68036 4.23071C9.78187 4.18842 9.89075 4.16664 10.0007 4.16664C10.1107 4.16664 10.2196 4.18842 10.3211 4.23071C10.4226 4.273 10.5147 4.33497 10.5921 4.41304L19.755 13.5759C19.9119 13.7328 20 13.9455 20 14.1674C20 14.3892 19.9119 14.6019 19.755 14.7588C19.5982 14.9156 19.3854 15.0038 19.1636 15.0038C18.9418 15.0038 18.729 14.9156 18.5722 14.7588L10.0007 6.17898L1.42924 14.7588C1.3518 14.8369 1.25967 14.8988 1.15817 14.9411C1.05666 14.9834 0.947784 15.0052 0.83782 15.0052C0.727856 15.0052 0.61898 14.9834 0.517473 14.9411C0.415964 14.8988 0.323835 14.8369 0.246397 14.7588Z" fill="#B9B9B9"/>
</svg>
