<svg width="16" height="16" viewBox="0 0 16 16" fill="none" xmlns="http://www.w3.org/2000/svg">
<path d="M15.8029 3.53061C15.8653 3.59256 15.9149 3.66627 15.9487 3.74747C15.9826 3.82868 16 3.91578 16 4.00375C16 4.09172 15.9826 4.17883 15.9487 4.26003C15.9149 4.34124 15.8653 4.41494 15.8029 4.47689L8.47257 11.8072C8.41062 11.8697 8.33692 11.9192 8.25571 11.9531C8.1745 11.9869 8.0874 12.0043 7.99943 12.0043C7.91146 12.0043 7.82436 11.9869 7.74315 11.9531C7.66195 11.9192 7.58824 11.8697 7.52629 11.8072L0.19598 4.47689C0.070496 4.35141 0 4.18121 0 4.00375C0 3.82629 0.070496 3.6561 0.19598 3.53061C0.321464 3.40513 0.491657 3.33463 0.669118 3.33463C0.84658 3.33463 1.01677 3.40513 1.14226 3.53061L7.99943 10.3945L14.8566 3.53061C14.9186 3.46815 14.9923 3.41858 15.0735 3.38475C15.1547 3.35091 15.2418 3.3335 15.3297 3.3335C15.4177 3.3335 15.5048 3.35091 15.586 3.38475C15.6672 3.41858 15.7409 3.46815 15.8029 3.53061Z" fill="black"/>
</svg>
