<svg width="20" height="20" viewBox="0 0 20 20" fill="none" xmlns="http://www.w3.org/2000/svg">
<path d="M19.7536 4.41304C19.8317 4.49048 19.8936 4.58261 19.9359 4.68412C19.9782 4.78562 20 4.8945 20 5.00447C20 5.11443 19.9782 5.22331 19.9359 5.32481C19.8936 5.42632 19.8317 5.51845 19.7536 5.59589L10.5907 14.7588C10.5133 14.8369 10.4211 14.8988 10.3196 14.9411C10.2181 14.9834 10.1093 15.0052 9.99929 15.0052C9.88933 15.0052 9.78045 14.9834 9.67894 14.9411C9.57743 14.8988 9.4853 14.8369 9.40787 14.7588L0.244975 5.59589C0.08812 5.43903 0 5.22629 0 5.00447C0 4.78264 0.08812 4.5699 0.244975 4.41304C0.40183 4.25619 0.614571 4.16807 0.836398 4.16807C1.05822 4.16807 1.27097 4.25619 1.42782 4.41304L9.99929 12.9928L18.5708 4.41304C18.6482 4.33497 18.7403 4.273 18.8418 4.23071C18.9433 4.18842 19.0522 4.16665 19.1622 4.16665C19.2721 4.16665 19.381 4.18842 19.4825 4.23071C19.584 4.273 19.6762 4.33497 19.7536 4.41304Z" fill="#B9B9B9"/>
</svg>
