<svg width="146" height="146" viewBox="0 0 146 146" fill="none" xmlns="http://www.w3.org/2000/svg">
<path d="M71.815 3.4537V5.08333L76.615 5.08333V6L70.615 6V0L76.6046 0V0.916667L71.815 0.916667V2.57408L75.7385 2.57408V3.4537L71.815 3.4537Z" fill="black"/>
<path d="M80.3583 5.18471L80.4887 4.21529L84.3076 4.72889L84.1772 5.69831L80.3583 5.18471ZM78.6808 6.46448L82.325 0.494463L83.5392 0.657761L85.506 7.38237L84.2722 7.21644L82.6043 1.1601L83.0939 1.22594L79.895 6.62778L78.6808 6.46448Z" fill="black"/>
<path d="M87.3883 7.82805L89.0798 1.65308L92.7772 2.66589C93.241 2.79293 93.6229 2.96927 93.9231 3.19491C94.225 3.4142 94.4306 3.68566 94.54 4.0093C94.6512 4.32659 94.6493 4.69487 94.5345 5.11416C94.4561 5.40004 94.3415 5.63157 94.1905 5.80876C94.0413 5.9796 93.8635 6.10505 93.6572 6.18512C93.4508 6.26519 93.2237 6.30884 92.9759 6.31608C92.7361 6.3187 92.4834 6.29387 92.2177 6.24157L92.1407 6.14876C92.5438 6.27284 92.8724 6.40724 93.1264 6.55195C93.3822 6.69031 93.5556 6.86757 93.6466 7.08374C93.7377 7.2999 93.7353 7.58269 93.6396 7.9321L93.2298 9.42819L92.1244 9.12539L92.5185 7.68647C92.5847 7.44506 92.5947 7.24634 92.5487 7.09031C92.5026 6.93428 92.3818 6.80214 92.186 6.69389C91.992 6.57928 91.7045 6.46977 91.3233 6.36536L89.1316 5.76498L88.4842 8.12824L87.3883 7.82805ZM89.3769 4.86923L91.9784 5.58185C92.3596 5.68626 92.6739 5.67333 92.9213 5.54304C93.1704 5.40641 93.3377 5.18244 93.4229 4.87115C93.5047 4.57257 93.4689 4.31689 93.3155 4.10412C93.162 3.89135 92.8947 3.73276 92.5136 3.62835L89.9121 2.91572L89.3769 4.86923Z" fill="black"/>
<path d="M101.506 11.4487L101.124 11.4372L103.215 6.50699L104.27 6.95442L101.77 12.8489L100.715 12.4014L98.2921 5.73968L98.6645 5.74733L96.5854 10.6503L95.5394 10.2067L98.0388 4.31226L99.0849 4.75583L101.506 11.4487Z" fill="black"/>
<path d="M107.682 14.9351L107.133 15.8617L105.985 15.182L106.534 14.2554L107.682 14.9351Z" fill="black"/>
<path d="M124.128 21.0907L120.229 24.8616L123.024 27.7522L122.321 28.4322L118.736 24.7249L123.338 20.2739L124.128 21.0907Z" fill="black"/>
<path d="M127.664 30.7185L126.264 31.75L128.96 35.409L128.173 35.9892L124.803 31.4155L129.957 27.6177L133.321 32.1835L132.534 32.7637L129.844 29.1126L128.42 30.1617L130.624 33.1526L129.868 33.7094L127.664 30.7185Z" fill="black"/>
<path d="M131.514 38.7L132.372 38.2299L134.224 41.6091L133.366 42.0792L131.514 38.7ZM129.489 38.1086L136.457 37.5011L137.046 38.5755L132.798 44.1478L132.2 43.0561L136.087 38.1209L136.324 38.5541L130.078 39.1831L129.489 38.1086Z" fill="black"/>
<path d="M133.556 45.9276L139.531 43.6265L140.909 47.2039C141.082 47.6526 141.166 48.0647 141.163 48.4402C141.165 48.8133 141.069 49.1399 140.873 49.42C140.683 49.6976 140.386 49.9146 139.98 50.0709C139.704 50.1774 139.449 50.2224 139.217 50.206C138.991 50.1872 138.784 50.1185 138.598 49.9999C138.411 49.8812 138.241 49.7243 138.088 49.5291C137.944 49.3376 137.814 49.1194 137.698 48.8745L137.727 48.7574C137.867 49.1556 137.953 49.4998 137.987 49.7902C138.028 50.0781 137.988 50.3229 137.868 50.5244C137.748 50.7259 137.519 50.8918 137.181 51.022L135.733 51.5795L135.321 50.51L136.713 49.9738C136.947 49.8838 137.113 49.774 137.211 49.6444C137.31 49.5148 137.344 49.3391 137.315 49.1173C137.293 48.8931 137.21 48.5966 137.068 48.2278L136.251 46.1072L133.965 46.9879L133.556 45.9276ZM137.118 45.7734L138.087 48.2905C138.23 48.6593 138.426 48.9047 138.678 49.0266C138.936 49.1461 139.215 49.1479 139.516 49.0319C139.805 48.9206 139.99 48.7401 140.07 48.4903C140.151 48.2406 140.12 47.9313 139.978 47.5625L139.008 45.0454L137.118 45.7734Z" fill="black"/>
<path d="M139.016 59.4406L138.799 59.1267L144.008 57.8853L144.274 59.0002L138.046 60.4844L137.78 59.3695L141.706 53.4671L141.92 53.7715L136.74 55.006L136.477 53.9007L142.705 52.4165L142.968 53.5218L139.016 59.4406Z" fill="black"/>
<path d="M139.872 66.4807L138.8 66.5885L138.667 65.2614L139.739 65.1536L139.872 66.4807Z" fill="black"/>
<path d="M142.179 81.8772L141.39 86.5537L140.425 86.391L141.214 81.7145L142.179 81.8772ZM144.087 86.8384L143.897 87.9685L137.583 86.9036L137.774 85.7735L144.087 86.8384ZM145.016 81.3337L144.827 82.4542L138.514 81.3892L138.703 80.2688L145.016 81.3337Z" fill="black"/>
<path d="M139.019 91.9306L137.358 91.4154L136.011 95.7563L135.077 95.4665L136.76 90.0404L142.875 91.9373L141.195 97.3539L140.261 97.0641L141.604 92.7327L139.915 92.2087L138.815 95.7569L137.918 95.4788L139.019 91.9306Z" fill="black"/>
<path d="M139.261 101.983L134.341 99.7L132.648 103.348L131.761 102.936L133.932 98.2576L139.739 100.953L139.261 101.983Z" fill="black"/>
<path d="M131.191 108.237L131.982 108.742L130.568 110.957C130.373 111.262 130.303 111.562 130.358 111.855C130.419 112.151 130.599 112.395 130.899 112.587C131.21 112.785 131.51 112.848 131.799 112.774C132.088 112.701 132.33 112.512 132.525 112.206L133.854 110.124L129.299 107.216L129.91 106.259L135.307 109.704L133.409 112.677C133.228 112.96 133.021 113.199 132.787 113.393C132.556 113.597 132.306 113.743 132.039 113.83C131.769 113.923 131.486 113.95 131.191 113.91C130.896 113.87 130.593 113.751 130.283 113.553C129.977 113.358 129.744 113.135 129.584 112.884C129.429 112.637 129.34 112.373 129.316 112.092C129.289 111.817 129.322 111.533 129.414 111.24C129.504 110.953 129.639 110.669 129.82 110.385L131.191 108.237Z" fill="black"/>
<path d="M116.804 121.962C117.366 121.453 117.948 121.11 118.549 120.93C119.145 120.755 119.724 120.746 120.285 120.905C120.841 121.068 121.349 121.404 121.808 121.912C122.268 122.42 122.551 122.959 122.658 123.528C122.764 124.107 122.698 124.682 122.459 125.253C122.22 125.834 121.82 126.378 121.258 126.886C120.686 127.403 120.105 127.747 119.513 127.918C118.921 128.098 118.343 128.106 117.777 127.942C117.216 127.784 116.706 127.45 116.247 126.942C115.787 126.434 115.506 125.893 115.405 125.319C115.303 124.745 115.369 124.17 115.603 123.594C115.832 123.023 116.233 122.479 116.804 121.962ZM117.48 122.709C117.109 123.045 116.837 123.402 116.664 123.78C116.491 124.168 116.438 124.562 116.507 124.962C116.57 125.366 116.777 125.761 117.126 126.147C117.47 126.528 117.841 126.77 118.237 126.874C118.628 126.982 119.025 126.97 119.428 126.836C119.826 126.707 120.211 126.474 120.582 126.138C120.948 125.807 121.221 125.445 121.399 125.053C121.572 124.665 121.627 124.27 121.563 123.865C121.5 123.461 121.296 123.068 120.951 122.687C120.602 122.301 120.229 122.057 119.834 121.953C119.438 121.849 119.038 121.864 118.635 121.998C118.232 122.14 117.847 122.378 117.48 122.709Z" fill="black"/>
<path d="M116.074 131.01L110.958 134.522L110.405 133.716L115.52 130.204L116.074 131.01ZM113.494 131.739L112.557 132.382L109.42 127.812L110.357 127.169L113.494 131.739Z" fill="black"/>
<path d="M106.442 133.962L102.209 136.101L101.768 135.228L106.001 133.089L106.442 133.962ZM103.58 138.442L102.557 138.958L99.6698 133.244L100.693 132.727L103.58 138.442ZM108.563 135.924L107.549 136.436L104.661 130.722L105.675 130.21L108.563 135.924Z" fill="black"/>
<path d="M96.4741 137.381L95.9037 135.739L91.6102 137.23L91.2893 136.306L96.6562 134.442L98.7563 140.49L93.3988 142.351L93.078 141.427L97.3621 139.939L96.782 138.268L93.2725 139.487L92.9646 138.6L96.4741 137.381Z" fill="black"/>
<path d="M88.9254 136.925L90.2007 143.199L86.4439 143.962C85.9727 144.058 85.5523 144.073 85.1826 144.007C84.8143 143.947 84.5083 143.798 84.2647 143.558C84.0224 143.325 83.8579 142.996 83.7713 142.57C83.7123 142.279 83.7102 142.021 83.765 141.795C83.8212 141.575 83.9233 141.383 84.0713 141.218C84.2194 141.054 84.4024 140.912 84.6203 140.794C84.8331 140.684 85.0699 140.592 85.3306 140.519L85.4412 140.567C85.0255 140.638 84.6716 140.666 84.3796 140.651C84.0889 140.643 83.8542 140.563 83.6755 140.411C83.4967 140.26 83.3713 140.006 83.2991 139.651L82.9901 138.131L84.1133 137.903L84.4104 139.365C84.4603 139.61 84.541 139.792 84.6524 139.91C84.7639 140.029 84.9314 140.092 85.1549 140.101C85.3797 140.115 85.6858 140.083 86.0731 140.005L88.3 139.552L87.8119 137.151L88.9254 136.925ZM88.485 140.462L85.8417 141C85.4544 141.078 85.1797 141.232 85.0177 141.459C84.8569 141.694 84.8087 141.969 84.873 142.285C84.9347 142.589 85.082 142.801 85.3149 142.921C85.5478 143.042 85.8579 143.063 86.2452 142.984L88.8884 142.447L88.485 140.462Z" fill="black"/>
<path d="M79.6784 140.677L78.5546 140.752C78.5186 140.51 78.4085 140.297 78.2245 140.111C78.0408 139.932 77.8073 139.795 77.5237 139.702C77.2341 139.616 76.9085 139.585 76.5471 139.609C76.225 139.631 75.9615 139.688 75.7565 139.781C75.5514 139.874 75.401 139.993 75.3051 140.138C75.2091 140.283 75.1678 140.454 75.181 140.651C75.1937 140.842 75.2661 140.986 75.398 141.082C75.5233 141.18 75.7166 141.256 75.9777 141.311C76.2389 141.366 76.569 141.417 76.9682 141.462C77.3012 141.506 77.6222 141.567 77.9311 141.646C78.24 141.724 78.5211 141.83 78.7744 141.965C79.0211 142.101 79.2208 142.272 79.3733 142.48C79.5258 142.687 79.6122 142.942 79.6325 143.245C79.6558 143.593 79.5814 143.912 79.4093 144.2C79.2306 144.49 78.9559 144.726 78.5853 144.909C78.2081 145.093 77.7402 145.203 77.1815 145.241C76.3403 145.297 75.6865 145.146 75.2202 144.788C74.7478 144.437 74.4959 143.929 74.4647 143.264L75.5491 143.191C75.6031 143.604 75.7773 143.889 76.0718 144.048C76.3667 144.213 76.7311 144.281 77.1648 144.252C77.5592 144.225 77.8832 144.134 78.1368 143.979C78.3909 143.83 78.5076 143.601 78.4869 143.292C78.4786 143.167 78.4415 143.057 78.3758 142.962C78.3039 142.875 78.193 142.796 78.0431 142.727C77.8871 142.665 77.6818 142.606 77.4273 142.551C77.1665 142.502 76.8465 142.454 76.467 142.407C76.1476 142.369 75.8468 142.313 75.5646 142.24C75.2763 142.173 75.0254 142.074 74.812 141.943C74.5924 141.819 74.4162 141.653 74.2834 141.444C74.1506 141.235 74.0736 140.973 74.0525 140.657C74.0283 140.296 74.0988 139.968 74.2639 139.673C74.4294 139.384 74.6973 139.145 75.0675 138.956C75.4381 138.772 75.9257 138.66 76.5304 138.62C76.9904 138.589 77.3948 138.615 77.7436 138.697C78.0863 138.787 78.3849 138.908 78.6395 139.063C78.888 139.225 79.0914 139.403 79.2496 139.597C79.4078 139.791 79.5229 139.981 79.5948 140.168C79.6606 140.361 79.6885 140.531 79.6784 140.677Z" fill="black"/>
<path d="M67.6081 139.734L67.68 138.659L69.0109 138.748L68.939 139.823L67.6081 139.734Z" fill="black"/>
<path d="M50.1307 135.5L50.6254 135.671L45.4809 140.035L44.4076 139.662L46.5077 133.614L47.5811 133.987L46.0124 138.504L45.7957 138.345L49.9798 134.82L51.1559 135.228L52.2578 140.579L51.9925 140.56L53.5546 136.061L54.628 136.434L52.5278 142.482L51.4545 142.109L50.1307 135.5Z" fill="black"/>
<path d="M40.0564 137.476L39.0335 136.959L41.921 131.244L42.944 131.761L40.0564 137.476Z" fill="black"/>
<path d="M32.4461 126.723L32.8177 126.81L29.7869 131.225L28.842 130.576L32.4655 125.298L33.4104 125.947L34.458 132.957L34.0946 132.876L37.1086 128.485L38.0453 129.128L34.4219 134.407L33.4851 133.764L32.4461 126.723Z" fill="black"/>
<path d="M25.9534 128.23L21.3515 124.068L22.0077 123.342L26.6095 127.505L25.9534 128.23ZM24.6467 125.889L23.804 125.127L27.5221 121.016L28.3648 121.778L24.6467 125.889Z" fill="black"/>
<path d="M12.8322 106.049C13.2896 105.836 13.7444 105.752 14.1966 105.8C14.6433 105.851 15.0765 106.027 15.4962 106.33C15.9068 106.63 16.2823 107.047 16.6225 107.58C16.9167 108.041 17.1268 108.505 17.2527 108.971C17.3752 109.432 17.4101 109.879 17.3577 110.311C17.2962 110.741 17.1429 111.143 16.898 111.519C16.6474 111.897 16.2973 112.23 15.8476 112.517C15.3923 112.808 14.9429 112.986 14.4995 113.05C14.0505 113.118 13.618 113.089 13.202 112.964C12.7825 112.833 12.3894 112.615 12.0227 112.31C11.6525 111.999 11.3203 111.614 11.0261 111.153C10.6823 110.614 10.4633 110.094 10.3691 109.591C10.2714 109.083 10.299 108.612 10.452 108.178C10.5994 107.748 10.8681 107.374 11.2582 107.054L11.8589 107.995C11.6552 108.227 11.5204 108.481 11.4546 108.758C11.3833 109.037 11.3847 109.334 11.4589 109.646C11.5276 109.961 11.6664 110.283 11.8755 110.61C12.1414 111.027 12.4556 111.354 12.8181 111.591C13.1771 111.823 13.5613 111.941 13.9705 111.946C14.3761 111.945 14.7927 111.808 15.2202 111.535C15.6422 111.265 15.939 110.947 16.1108 110.579C16.279 110.206 16.3335 109.808 16.2743 109.385C16.2115 108.956 16.0472 108.533 15.7814 108.117C15.5723 107.789 15.3436 107.529 15.0953 107.336C14.8378 107.141 14.5699 107.015 14.2915 106.958C14.0075 106.905 13.7213 106.916 13.4329 106.991L12.8322 106.049Z" fill="black"/>
<path d="M13.9067 103.192L8.09912 105.887L6.48544 102.409C6.28303 101.973 6.17109 101.568 6.14962 101.193C6.12216 100.821 6.19669 100.488 6.37321 100.196C6.54375 99.9061 6.82619 99.6697 7.22053 99.4867C7.48941 99.3619 7.74023 99.3 7.97302 99.3009C8.19983 99.3046 8.41042 99.3594 8.60478 99.4652C8.79914 99.5711 8.97909 99.7163 9.14463 99.9009C9.30142 100.082 9.44562 100.291 9.57722 100.528L9.55607 100.647C9.39057 100.259 9.28107 99.9211 9.22757 99.6337C9.1681 99.349 9.19151 99.1022 9.29781 98.8931C9.40411 98.684 9.62157 98.5032 9.95019 98.3507L11.3573 97.6978L11.8397 98.7374L10.4864 99.3654C10.2594 99.4708 10.1011 99.5914 10.0117 99.7273C9.92226 99.8632 9.8994 100.041 9.9431 100.26C9.98082 100.482 10.0829 100.773 10.2492 101.131L11.2058 103.192L13.4285 102.161L13.9067 103.192ZM10.3633 103.583L9.22792 101.137C9.06156 100.778 8.84877 100.547 8.58955 100.442C8.32435 100.34 8.04536 100.357 7.75259 100.492C7.47177 100.623 7.29965 100.815 7.23623 101.07C7.17281 101.324 7.22428 101.631 7.39064 101.989L8.52604 104.436L10.3633 103.583Z" fill="black"/>
<path d="M2.39534 91.0417L7.3073 92.2697L9.28901 91.655L9.62858 92.7497L7.64687 93.3644L4.29224 97.1567L3.9029 95.9017L6.85853 92.6572L7.04588 93.2612L2.78467 92.2968L2.39534 91.0417Z" fill="black"/>
<path d="M5.51761 85.2844L4.59206 85.4406L4.15492 82.849C4.09466 82.4918 3.94578 82.223 3.70827 82.0426C3.46427 81.8633 3.1669 81.8033 2.81617 81.8624C2.45244 81.9238 2.18798 82.0786 2.02278 82.3269C1.85759 82.5752 1.80512 82.878 1.86538 83.2352L2.27622 85.6709L7.60549 84.7719L7.79448 85.8924L1.4812 86.9573L0.89451 83.4791C0.838635 83.1479 0.832063 82.8317 0.874788 82.5306C0.909923 82.224 0.997097 81.9488 1.13631 81.7049C1.27443 81.4545 1.46623 81.2451 1.71172 81.0768C1.9572 80.9085 2.26181 80.7936 2.62553 80.7323C2.98277 80.672 3.30494 80.6811 3.59206 80.7596C3.87268 80.8392 4.11605 80.9752 4.32218 81.1675C4.52721 81.3534 4.69334 81.5859 4.82059 81.865C4.94673 82.1376 5.03774 82.4396 5.09362 82.7708L5.51761 85.2844Z" fill="black"/>
<path d="M0.20752 77.605L0.000184412 71.4036L0.977793 71.3709L1.18513 77.5723L0.20752 77.605ZM0.981781 75.0384L0.943813 73.9028L6.48359 73.7176L6.52156 74.8532L0.981781 75.0384Z" fill="black"/>
<path d="M6.98107 65.4549C6.90525 66.2086 6.70463 66.8537 6.37922 67.3903C6.05448 67.9203 5.63084 68.3146 5.10832 68.5732C4.58645 68.8253 3.98472 68.917 3.30312 68.8484C2.62153 68.7798 2.05012 68.5701 1.58892 68.2192C1.12181 67.861 0.785209 67.3902 0.579099 66.8068C0.367094 66.2161 0.299002 65.544 0.374823 64.7903C0.451964 64.0235 0.65258 63.3783 0.976669 62.8548C1.29486 62.3241 1.7185 61.9298 2.24758 61.6719C2.7701 61.4133 3.37216 61.3183 4.05376 61.3869C4.73536 61.4555 5.30643 61.6685 5.76698 62.026C6.22753 62.3834 6.56413 62.8542 6.77679 63.4383C6.99012 64.0159 7.05821 64.6881 6.98107 65.4549ZM5.97834 65.354C6.02845 64.8559 5.9907 64.4086 5.86509 64.0119C5.73359 63.6081 5.50832 63.2809 5.18928 63.0304C4.8709 62.7733 4.45283 62.6187 3.93508 62.5666C3.42388 62.5152 2.98668 62.5837 2.62346 62.7723C2.26091 62.9542 1.97498 63.23 1.76568 63.5995C1.55704 63.9625 1.42767 64.3931 1.37756 64.8911C1.32811 65.3827 1.3688 65.8336 1.49964 66.244C1.63114 66.6478 1.85608 66.9783 2.17446 67.2354C2.49285 67.4925 2.90764 67.6468 3.41883 67.6982C3.93659 67.7503 4.37707 67.6821 4.74028 67.4935C5.1035 67.305 5.38976 67.0259 5.59906 66.6564C5.80246 66.2797 5.92889 65.8455 5.97834 65.354Z" fill="black"/>
<path d="M10.0777 50.898L4.10303 48.5969L5.28909 45.5174C5.57317 44.7798 5.92927 44.2675 6.35739 43.9807C6.77936 43.6915 7.24851 43.6463 7.76484 43.8451C8.09676 43.973 8.33148 44.1516 8.46899 44.381C8.60036 44.6081 8.66195 44.8789 8.65376 45.1933C8.63943 45.5055 8.57117 45.8568 8.44898 46.2474L8.40787 46.1892C8.52054 45.9149 8.64575 45.6632 8.78347 45.4339C8.91505 45.2022 9.06552 45.0131 9.23489 44.8666C9.40662 44.7139 9.60174 44.6197 9.82024 44.5838C10.035 44.5395 10.2806 44.5706 10.5572 44.6771C10.926 44.8191 11.1948 45.0285 11.3635 45.3052C11.5322 45.582 11.6172 45.9112 11.6184 46.2928C11.6159 46.6659 11.5379 47.07 11.3845 47.505L10.0777 50.898ZM9.58248 49.4897L10.4241 47.3045C10.578 46.905 10.6287 46.5716 10.5763 46.3044C10.5202 46.0287 10.3446 45.834 10.0496 45.7203C9.82213 45.6327 9.63012 45.6364 9.47355 45.7314C9.31934 45.8203 9.18543 45.9663 9.07184 46.1696C8.95825 46.3729 8.85647 46.5914 8.76651 46.8249L7.97817 48.8718L9.58248 49.4897ZM7.09304 48.5309L7.84587 46.5762C7.99975 46.1767 8.0505 45.8433 7.99813 45.5761C7.94198 45.3004 7.76639 45.1057 7.47134 44.992C7.1763 44.8784 6.92469 44.9086 6.71653 45.0825C6.50459 45.2479 6.33115 45.5058 6.19621 45.8562L5.41498 47.8846L7.09304 48.5309Z" fill="black"/>
<path d="M13.5274 37.0958L10.2869 35.3199L10.8329 34.3235L14.1515 36.1421C14.5038 36.3352 14.7889 36.5552 15.0065 36.8022C15.2216 37.0403 15.3725 37.2995 15.4592 37.5798C15.5491 37.8544 15.5882 38.1463 15.5765 38.4553C15.5623 38.7555 15.5036 39.0613 15.4005 39.3729C15.2973 39.6844 15.1587 39.999 14.9846 40.3167C14.8073 40.6402 14.612 40.935 14.3986 41.2011C14.1883 41.4614 13.9589 41.6812 13.7105 41.8605C13.4594 42.0309 13.1939 42.152 12.9141 42.224C12.6343 42.296 12.3346 42.3083 12.0151 42.2609C11.693 42.2045 11.3557 42.0798 11.0033 41.8867L7.68481 40.0681L8.23087 39.0717L11.4714 40.8476C11.9104 41.0881 12.2914 41.188 12.6142 41.1471C12.9313 41.103 13.2107 40.9632 13.4525 40.7277C13.6884 40.4889 13.9046 40.1905 14.1008 39.8324C14.2908 39.4858 14.4213 39.1517 14.4923 38.8301C14.5608 38.4996 14.5283 38.1889 14.3948 37.8979C14.2556 37.6037 13.9664 37.3364 13.5274 37.0958Z" fill="black"/>
<path d="M14.4655 29.1455C14.8758 28.5887 15.2886 28.1728 15.7039 27.8979C16.1192 27.6229 16.5282 27.462 16.9309 27.4151C17.3322 27.359 17.7219 27.3966 18.0998 27.5277C18.4777 27.6589 18.8363 27.8495 19.1757 28.0996C19.5204 28.3535 19.8101 28.6488 20.0448 28.9854C20.2795 29.322 20.4329 29.6968 20.5049 30.1099C20.5755 30.5137 20.5457 30.954 20.4154 31.4307C20.2797 31.9035 20.0146 32.4077 19.62 32.9433L17.7621 35.4648L12.6077 31.667L14.4655 29.1455ZM17.6327 33.9581L18.8049 32.3672C19.094 31.9748 19.2839 31.6116 19.3746 31.2775C19.4653 30.9434 19.4805 30.6396 19.4202 30.3661C19.3638 30.0873 19.253 29.8379 19.0878 29.618C18.9212 29.3889 18.7239 29.1903 18.4958 29.0223C18.2731 28.8582 18.0329 28.7344 17.7753 28.651C17.5163 28.5583 17.248 28.5283 16.9703 28.561C16.6965 28.5883 16.4161 28.6968 16.1292 28.8863C15.837 29.0719 15.5463 29.3609 15.2572 29.7533L14.0851 31.3442L17.6327 33.9581Z" fill="black"/>
<path d="M21.4313 20.773C21.9121 20.2759 22.3766 19.9187 22.8249 19.7016C23.2731 19.4845 23.6999 19.3795 24.1053 19.3867C24.5105 19.3846 24.8917 19.4737 25.2487 19.6541C25.6057 19.8345 25.9358 20.0712 26.2388 20.3643C26.5466 20.6619 26.7943 20.9932 26.9821 21.358C27.1699 21.7229 27.2719 22.1148 27.2882 22.5338C27.3044 22.9434 27.2161 23.3758 27.0234 23.8309C26.826 24.2814 26.496 24.7457 26.0335 25.224L23.8561 27.4754L19.2539 23.0244L21.4313 20.773ZM23.9287 25.9649L25.3025 24.5444C25.6413 24.194 25.878 23.8593 26.0124 23.5403C26.1468 23.2213 26.2024 22.9223 26.1791 22.6432C26.1604 22.3593 26.0838 22.0974 25.9493 21.8574C25.8147 21.6081 25.6456 21.385 25.442 21.1881C25.2432 20.9958 25.0216 20.8411 24.7775 20.7241C24.5331 20.5977 24.2712 20.5322 23.9916 20.5276C23.7166 20.5182 23.4243 20.5883 23.1147 20.7379C22.8003 20.8829 22.4737 21.1306 22.1349 21.481L20.7611 22.9014L23.9287 25.9649Z" fill="black"/>
<path d="M27.6616 15.5562L28.5611 14.8458L32.529 19.8705L31.6295 20.5808L27.6616 15.5562Z" fill="black"/>
<path d="M36.6375 13.7569L37.5237 15.2531L41.4342 12.9369L41.9327 13.7785L37.0445 16.6737L33.7817 11.165L38.6613 8.27484L39.1598 9.11645L35.2578 11.4276L36.1591 12.9493L39.3555 11.0561L39.8339 11.8637L36.6375 13.7569Z" fill="black"/>
<path d="M41.4856 6.8667L47.3073 4.3981L47.6891 5.29864L44.6894 11.7649L44.4491 11.5019L49.4248 9.39199L49.8067 10.2925L43.985 12.7611L43.6032 11.8606L46.6029 5.39437L46.8522 5.6535L41.8675 7.76724L41.4856 6.8667Z" fill="black"/>
<path d="M55.6197 7.40737L55.9042 8.44606L54.6178 8.79846L54.3333 7.75977L55.6197 7.40737Z" fill="black"/>
</svg>
