<svg width="54" height="13" viewBox="0 0 54 13" fill="none" xmlns="http://www.w3.org/2000/svg">
<path d="M2.76588 12.704C2.76588 12.5653 2.73921 12.496 2.68588 12.496L2.31788 12.672C2.31788 12.5973 2.27521 12.544 2.18988 12.512L2.06188 12.496C1.97654 12.496 1.86988 12.5333 1.74188 12.608C1.72054 12.5547 1.69388 12.5013 1.66188 12.448C1.62988 12.3947 1.60321 12.3467 1.58188 12.304C1.44321 12.0373 1.30454 11.744 1.16588 11.424C1.03788 11.0933 0.915208 10.7787 0.797875 10.48C0.691208 10.1813 0.605875 9.94667 0.541875 9.776C0.499208 9.63733 0.451208 9.42933 0.397875 9.152C0.344542 8.87467 0.291208 8.52267 0.237875 8.096C0.355208 8.17067 0.445875 8.208 0.509875 8.208C0.584542 8.208 0.653875 8.096 0.717875 7.872C0.749875 7.91467 0.808542 7.936 0.893875 7.936C0.957875 7.936 1.00588 7.91467 1.03788 7.872L1.29388 7.488L1.58188 7.584H1.59788C1.61921 7.584 1.64054 7.57333 1.66188 7.552C1.68321 7.53067 1.71521 7.50933 1.75788 7.488C1.84321 7.43467 1.90721 7.408 1.94988 7.408L1.99788 7.424C2.26454 7.552 2.43521 7.78667 2.50988 8.128C2.70188 8.93867 2.89388 9.344 3.08588 9.344C3.27788 9.344 3.50188 9.14133 3.75788 8.736C3.88588 8.53333 4.01388 8.29867 4.14188 8.032C4.28054 7.76533 4.41921 7.46667 4.55788 7.136C4.57921 7.264 4.60054 7.328 4.62188 7.328C4.67521 7.328 4.76588 7.19467 4.89388 6.928C5.03254 6.66133 5.25121 6.29333 5.54988 5.824C5.72054 5.536 5.93388 5.21067 6.18988 4.848C6.45654 4.48533 6.73921 4.112 7.03788 3.728C7.33654 3.344 7.62454 2.98133 7.90188 2.64C8.18988 2.29867 8.44588 2.00533 8.66988 1.76C8.89388 1.51467 9.05921 1.35467 9.16588 1.28C9.57121 1.00267 9.89121 0.735999 10.1259 0.48C10.1152 0.554666 10.0992 0.623999 10.0779 0.688C10.0672 0.741333 10.0619 0.778666 10.0619 0.799999C10.0619 0.842666 10.0832 0.863999 10.1259 0.863999L10.5739 0.639999V0.704C10.5739 0.789333 10.5952 0.832 10.6379 0.832C10.6699 0.832 10.7339 0.784 10.8299 0.688C10.9259 0.592 10.9792 0.522666 10.9899 0.48L10.9579 0.704L11.5019 0.384L11.3739 0.672C11.5445 0.554666 11.6672 0.495999 11.7419 0.495999C11.7845 0.495999 11.8165 0.522666 11.8379 0.575999C11.8592 0.618666 11.8699 0.661333 11.8699 0.704C11.8699 0.767999 11.8432 0.842666 11.7899 0.927999C11.7365 1.01333 11.6672 1.11467 11.5819 1.232C11.5179 1.31733 11.4112 1.44533 11.2619 1.616C11.1232 1.776 10.9099 2.016 10.6219 2.336C10.3339 2.64533 9.94988 3.07733 9.46988 3.632C9.34188 3.77067 9.14454 4.016 8.87788 4.368C8.61121 4.70933 8.30721 5.10933 7.96588 5.568C7.63521 6.016 7.30454 6.46933 6.97388 6.928C6.64321 7.38667 6.34988 7.80267 6.09388 8.176C5.83788 8.53867 5.65654 8.81067 5.54988 8.992L4.55788 10.672C4.34454 11.0347 4.16854 11.3333 4.02988 11.568C3.89121 11.792 3.78454 11.9467 3.70988 12.032C3.54988 12.224 3.37388 12.3947 3.18188 12.544L3.03788 12.464L2.90988 12.544L2.76588 12.704ZM20.9766 3.184C20.998 3.696 21.1046 4.73067 21.2966 6.288C21.4886 7.84533 21.6593 8.91733 21.8086 9.504L22.8646 9.408C24.3793 9.28 25.286 8.84267 25.5846 8.096C25.734 7.73333 25.7873 7.25333 25.7446 6.656C25.702 6.05867 25.574 5.584 25.3606 5.232C25.158 4.88 24.79 4.50667 24.2566 4.112C23.734 3.71733 23.2486 3.45067 22.8006 3.312C21.6913 2.97067 21.0833 2.896 20.9766 3.088V3.184ZM19.1846 3.424C19.1206 2.82667 19.0993 2.432 19.1206 2.24C19.142 2.048 19.2326 1.808 19.3926 1.52C19.5526 1.232 19.7073 1.056 19.8566 0.992C20.006 0.928 20.23 0.917333 20.5286 0.959999C20.8273 1.00267 21.3926 1.13067 22.2246 1.344C23.0566 1.57867 23.7606 1.83467 24.3366 2.112C24.9126 2.38933 25.4566 2.77333 25.9686 3.264C26.4806 3.75467 26.8433 4.24533 27.0566 4.736C27.27 5.216 27.398 5.81333 27.4406 6.528C27.4833 7.232 27.4833 7.70133 27.4406 7.936C27.398 8.17067 27.302 8.48533 27.1526 8.88C26.854 9.56267 26.3846 10.0853 25.7446 10.448C25.1153 10.8213 24.3473 11.04 23.4406 11.104C22.5446 11.168 21.942 11.296 21.6326 11.488C21.3233 11.68 21.0566 11.7493 20.8326 11.696C20.6193 11.632 20.4113 11.4187 20.2086 11.056C20.0166 10.6933 19.9313 10.3093 19.9526 9.904C19.974 9.49867 19.8673 8.464 19.6326 6.8C19.3766 5.14667 19.2273 4.02133 19.1846 3.424ZM31.9531 6.8C31.6438 6.49067 31.3291 6.45333 31.0091 6.688C30.6891 6.92267 30.4331 7.392 30.2411 8.096C30.0491 8.8 30.0918 9.45067 30.3691 10.048C30.6465 10.6453 31.0145 10.8853 31.4731 10.768C31.7611 10.6933 31.9691 10.592 32.0971 10.464C32.2251 10.336 32.3425 10.08 32.4491 9.696C32.5558 9.312 32.5558 8.78933 32.4491 8.128C32.3425 7.46667 32.1771 7.024 31.9531 6.8ZM28.4491 8.448C28.4918 7.616 28.7051 6.85867 29.0891 6.176C29.4731 5.49333 29.9691 5.02933 30.5771 4.784C31.1851 4.53867 32.0758 4.736 33.2491 5.376C33.8678 5.71733 34.2625 6.00533 34.4331 6.24C34.6038 6.47467 34.6145 6.74133 34.4651 7.04C34.3158 7.33867 34.2518 7.91467 34.2731 8.768C34.3371 10.7947 33.6171 12.0267 32.1131 12.464C30.9825 12.7947 30.0118 12.496 29.2011 11.568C28.8598 11.1733 28.6358 10.7627 28.5291 10.336C28.4331 9.90933 28.4065 9.28 28.4491 8.448ZM41.6385 11.008C41.3505 11.008 41.1318 10.8693 40.9825 10.592C40.8332 10.3147 40.6838 9.80267 40.5345 9.056C40.2998 7.73333 40.0172 6.976 39.6865 6.784C39.6118 6.74133 39.5372 6.74667 39.4625 6.8C39.1958 7.01333 38.9025 8.02133 38.5825 9.824C38.4758 10.4107 38.3158 10.8587 38.1025 11.168C37.8892 11.4667 37.6598 11.5947 37.4145 11.552C37.1798 11.5093 37.0465 11.488 37.0145 11.488C36.8865 11.488 36.7692 11.296 36.6625 10.912C36.5558 10.528 36.4385 9.79733 36.3105 8.72C36.1825 7.64267 36.0065 6.85333 35.7825 6.352C35.4092 5.488 35.4625 4.93867 35.9425 4.704C36.4545 4.43733 36.9185 4.66667 37.3345 5.392L37.7025 6.048L38.1985 5.52C38.4545 5.232 38.7638 5.024 39.1265 4.896C39.4892 4.768 39.8198 4.752 40.1185 4.848C40.6092 4.99733 41.0358 5.36533 41.3985 5.952C41.7612 6.528 42.0385 7.30667 42.2305 8.288C42.4225 9.26933 42.4812 9.968 42.4065 10.384C42.3212 10.8 42.0652 11.008 41.6385 11.008ZM47.4979 6.72C46.7939 6.432 46.3085 6.43733 46.0419 6.736C45.8819 6.93867 45.8979 7.06667 46.0899 7.12C46.2819 7.17333 46.6979 7.22133 47.3379 7.264C47.9565 7.30667 48.2232 7.25333 48.1379 7.104C48.0952 7.008 47.8819 6.88 47.4979 6.72ZM50.5539 7.632C50.5539 7.87733 50.3939 8.13333 50.0739 8.4C49.7645 8.66667 49.4285 8.832 49.0659 8.896C48.7032 8.96 48.0365 8.99733 47.0659 9.008C46.0952 9.01867 45.5352 8.992 45.3859 8.928C45.2365 8.864 45.1619 8.85333 45.1619 8.896L45.3539 9.392C45.6099 10.0107 45.9192 10.3573 46.2819 10.432C46.6445 10.496 47.1992 10.368 47.9459 10.048C48.6925 9.728 49.1459 9.552 49.3059 9.52C49.4765 9.488 49.6685 9.54133 49.8819 9.68C50.1059 9.81867 50.2285 10.0373 50.2499 10.336C50.2712 10.6347 50.1859 10.8693 49.9939 11.04C49.8019 11.2107 49.3859 11.4347 48.7459 11.712C48.1059 11.9787 47.6579 12.1387 47.4019 12.192C47.1459 12.256 46.7672 12.2667 46.2659 12.224C45.7645 12.1813 45.3112 12.0213 44.9059 11.744C44.5005 11.4667 44.1592 11.0507 43.8819 10.496C43.6045 9.94133 43.4445 9.36533 43.4019 8.768C43.3805 8.17067 43.4605 7.65333 43.6419 7.216C43.8232 6.77867 44.1059 6.31467 44.4899 5.824C44.8739 5.33333 45.2099 5.01867 45.4979 4.88C45.7859 4.74133 46.2285 4.69333 46.8259 4.736C47.4232 4.77867 47.9085 4.88533 48.2819 5.056C48.9219 5.376 49.4605 5.78133 49.8979 6.272C50.3352 6.76267 50.5539 7.216 50.5539 7.632ZM51.9433 11.984C51.7619 11.8347 51.6713 11.648 51.6713 11.424C51.6713 11.2 51.7566 10.9973 51.9273 10.816C52.1833 10.5387 52.4926 10.464 52.8553 10.592C53.2179 10.72 53.3993 10.9813 53.3993 11.376C53.3993 11.7707 53.2286 12.0373 52.8873 12.176C52.5459 12.3147 52.2313 12.2507 51.9433 11.984ZM51.7033 6.656C51.5753 5.86667 51.5113 5.13067 51.5113 4.448C51.5113 3.76533 51.5273 3.328 51.5592 3.136C51.5913 2.944 51.6766 2.77333 51.8153 2.624C52.1779 2.26133 52.5673 2.22933 52.9833 2.528C53.1113 2.61333 53.1966 2.79467 53.2393 3.072C53.2819 3.34933 53.3459 4.11733 53.4313 5.376C53.4953 6.63467 53.5273 7.38133 53.5273 7.616C53.5273 7.85067 53.4739 8.032 53.3673 8.16C53.2606 8.288 53.0579 8.352 52.7593 8.352C52.4606 8.352 52.2473 8.26667 52.1193 8.096C51.9699 7.92533 51.8313 7.44533 51.7033 6.656Z" fill="black"/>
</svg>
