<svg width="77" height="14" viewBox="0 0 77 14" fill="none" xmlns="http://www.w3.org/2000/svg">
<path d="M0.794375 0.24C0.933042 0.0906665 1.14638 0.0159998 1.43438 0.0159998C1.72238 0.0159998 1.95171 0.0959997 2.12238 0.256C2.29304 0.415999 2.45838 1.07733 2.61838 2.24C2.76771 3.40267 2.86371 4.90133 2.90638 6.736C2.95971 8.57067 3.01838 9.75467 3.08238 10.288C3.14638 10.8213 3.10371 11.1893 2.95438 11.392C2.81571 11.552 2.59704 11.6427 2.29838 11.664C1.99971 11.6853 1.78638 11.6213 1.65838 11.472C1.50904 11.3227 1.38104 10.704 1.27438 9.616C1.16771 8.528 1.11438 7.25867 1.11438 5.808C1.11438 4.35733 1.02904 3.11467 0.858375 2.08C0.687708 1.03467 0.666375 0.421333 0.794375 0.24ZM10.1698 9.008C9.88175 9.008 9.66308 8.86933 9.51375 8.592C9.36442 8.31467 9.21508 7.80267 9.06575 7.056C8.83108 5.73333 8.54842 4.976 8.21775 4.784C8.14308 4.74133 8.06842 4.74667 7.99375 4.8C7.72708 5.01333 7.43375 6.02133 7.11375 7.824C7.00708 8.41067 6.84708 8.85867 6.63375 9.168C6.42042 9.46667 6.19108 9.59467 5.94575 9.552C5.71108 9.50933 5.57775 9.488 5.54575 9.488C5.41775 9.488 5.30042 9.296 5.19375 8.912C5.08708 8.528 4.96975 7.79733 4.84175 6.72C4.71375 5.64267 4.53775 4.85333 4.31375 4.352C3.94042 3.488 3.99375 2.93867 4.47375 2.704C4.98575 2.43733 5.44975 2.66667 5.86575 3.392L6.23375 4.048L6.72975 3.52C6.98575 3.232 7.29508 3.024 7.65775 2.896C8.02042 2.768 8.35108 2.752 8.64975 2.848C9.14042 2.99733 9.56708 3.36533 9.92975 3.952C10.2924 4.528 10.5698 5.30667 10.7618 6.288C10.9538 7.26933 11.0124 7.968 10.9378 8.384C10.8524 8.8 10.5964 9.008 10.1698 9.008ZM20.4943 8.08C20.9423 8.08 21.5769 7.776 22.3983 7.168C22.6436 6.98667 22.7876 6.83733 22.8303 6.72C22.8729 6.60267 22.8783 6.352 22.8463 5.968C22.8036 5.584 22.7503 5.30667 22.6863 5.136C22.6223 4.96533 22.4623 4.77333 22.2063 4.56C21.9503 4.32533 21.6409 4.19733 21.2783 4.176C20.9263 4.15467 20.6276 4.25067 20.3823 4.464C20.1476 4.67733 20.0143 4.86933 19.9823 5.04C19.9503 5.21067 19.9609 5.69067 20.0143 6.48C20.0676 7.26933 20.1156 7.73333 20.1583 7.872C20.2009 8.01067 20.3129 8.08 20.4943 8.08ZM19.6143 2.56C19.6143 2.592 19.6249 2.61867 19.6463 2.64C19.6676 2.66133 19.6996 2.672 19.7423 2.672C19.7849 2.672 19.8436 2.66133 19.9183 2.64C19.9929 2.61867 20.1476 2.56533 20.3823 2.48C20.6169 2.39467 20.8783 2.34667 21.1663 2.336C21.4543 2.32533 21.8223 2.40533 22.2703 2.576C22.7183 2.74667 23.0863 2.93867 23.3743 3.152C23.6729 3.35467 23.9503 3.72267 24.2063 4.256C24.4623 4.78933 24.6169 5.36 24.6703 5.968C24.7343 6.56533 24.6489 7.09867 24.4143 7.568C24.1796 8.03733 23.7103 8.496 23.0063 8.944C22.3023 9.392 21.4169 9.744 20.3503 10L20.3823 11.088C20.4249 11.5573 20.4356 11.92 20.4143 12.176C20.3929 12.432 20.3556 12.592 20.3023 12.656C20.2703 12.72 20.1583 12.7947 19.9663 12.88C19.7743 12.9653 19.5396 12.9707 19.2623 12.896C18.9849 12.832 18.8249 12.7093 18.7823 12.528C18.6969 12.1973 18.5903 11.2107 18.4622 9.568C18.3343 7.91467 18.2063 6.66133 18.0783 5.808C17.9716 4.95467 17.9076 3.90933 17.8863 2.672C17.8649 2.448 17.9236 2.256 18.0623 2.096C18.2436 1.86133 18.5476 1.808 18.9743 1.936C19.4009 2.064 19.6143 2.272 19.6143 2.56ZM27.4115 3.056C27.4648 3.12 27.5128 3.152 27.5555 3.152C27.5982 3.152 27.6195 3.14133 27.6195 3.12C27.6408 3.09867 27.6728 3.01867 27.7155 2.88C27.7582 2.74133 27.9395 2.544 28.2595 2.288C28.5795 2.032 28.8622 1.872 29.1075 1.808C29.6408 1.68 30.2702 1.69067 30.9955 1.84C31.7208 1.98933 32.1582 2.208 32.3075 2.496C32.5315 2.912 32.4942 3.25867 32.1955 3.536C31.8968 3.81333 31.5342 3.88267 31.1075 3.744C30.6808 3.60533 30.3182 3.552 30.0195 3.584C29.7208 3.616 29.5182 3.69067 29.4115 3.808C29.3048 3.92533 29.1235 4.24 28.8675 4.752C28.6328 5.264 28.4888 5.65333 28.4355 5.92C28.3822 6.18667 28.3502 6.704 28.3395 7.472C28.3288 8.24 28.3075 8.73067 28.2755 8.944C28.2435 9.15733 28.1635 9.312 28.0355 9.408C27.8008 9.568 27.5662 9.63733 27.3315 9.616C27.0968 9.59467 26.9155 9.48267 26.7875 9.28C26.6808 8.97067 26.5635 8.26133 26.4355 7.152C26.3075 6.04267 26.1582 5.21067 25.9875 4.656C25.8168 4.10133 25.7155 3.67467 25.6835 3.376C25.6515 3.07733 25.6782 2.864 25.7635 2.736C25.8488 2.608 26.0035 2.512 26.2275 2.448C26.4515 2.384 26.6168 2.37333 26.7235 2.416C26.8302 2.45867 26.9582 2.56533 27.1075 2.736C27.2568 2.88533 27.3582 2.992 27.4115 3.056ZM36.9219 4.8C36.6125 4.49067 36.2979 4.45333 35.9779 4.688C35.6579 4.92267 35.4019 5.392 35.2099 6.096C35.0179 6.8 35.0605 7.45067 35.3379 8.048C35.6152 8.64533 35.9832 8.88533 36.4419 8.768C36.7299 8.69333 36.9379 8.592 37.0659 8.464C37.1939 8.336 37.3112 8.08 37.4179 7.696C37.5245 7.312 37.5245 6.78933 37.4179 6.128C37.3112 5.46667 37.1459 5.024 36.9219 4.8ZM33.4179 6.448C33.4605 5.616 33.6739 4.85867 34.0579 4.176C34.4419 3.49333 34.9379 3.02933 35.5459 2.784C36.1539 2.53867 37.0445 2.736 38.2179 3.376C38.8365 3.71733 39.2312 4.00533 39.4019 4.24C39.5725 4.47467 39.5832 4.74133 39.4339 5.04C39.2845 5.33867 39.2205 5.91467 39.2419 6.768C39.3059 8.79467 38.5859 10.0267 37.0819 10.464C35.9512 10.7947 34.9805 10.496 34.1699 9.568C33.8285 9.17333 33.6045 8.76267 33.4979 8.336C33.4019 7.90933 33.3752 7.28 33.4179 6.448ZM43.9193 7.296C44.0899 7.11467 44.2819 6.704 44.4953 6.064C44.7086 5.424 44.8366 4.96 44.8793 4.672C44.9219 4.384 44.9113 4.21867 44.8473 4.176C44.7833 4.13333 44.6073 4.096 44.3193 4.064C43.5939 4 43.0393 4.37333 42.6553 5.184C42.4953 5.536 42.4046 5.94667 42.3832 6.416C42.3619 6.88533 42.4259 7.20533 42.5753 7.376C42.7246 7.54667 42.9433 7.62133 43.2313 7.6C43.5193 7.57867 43.7486 7.47733 43.9193 7.296ZM43.0553 2.416C43.4713 2.26667 43.8713 2.192 44.2552 2.192C44.6393 2.192 45.1033 2.29867 45.6473 2.512C46.1913 2.72533 46.5486 2.93867 46.7193 3.152C46.9646 3.42933 47.0979 5.01867 47.1193 7.92C47.1193 8.92267 47.0339 9.712 46.8633 10.288C46.6926 10.864 46.4153 11.344 46.0313 11.728C45.6473 12.112 45.2099 12.4 44.7193 12.592C44.2286 12.784 43.7913 12.88 43.4073 12.88C43.0233 12.88 42.7673 12.8587 42.6393 12.816C42.5113 12.7627 42.3939 12.64 42.2873 12.448C42.1593 12.256 42.1166 12.032 42.1593 11.776C42.2019 11.52 42.3139 11.3547 42.4953 11.28C42.6766 11.2053 43.0126 11.136 43.5033 11.072C43.9939 11.008 44.3886 10.8267 44.6873 10.528C44.9859 10.2293 45.1886 9.78667 45.2953 9.2L45.3913 8.528L44.7993 8.912C44.0633 9.40267 43.3113 9.56267 42.5433 9.392C41.7753 9.22133 41.1993 8.74133 40.8153 7.952C40.4313 7.16267 40.4153 6.176 40.7673 4.992C40.9059 4.49067 41.2206 3.97333 41.7113 3.44C42.2019 2.90667 42.6499 2.56533 43.0553 2.416ZM49.8178 3.056C49.8711 3.12 49.9191 3.152 49.9618 3.152C50.0044 3.152 50.0258 3.14133 50.0258 3.12C50.0471 3.09867 50.0791 3.01867 50.1218 2.88C50.1644 2.74133 50.3458 2.544 50.6658 2.288C50.9858 2.032 51.2684 1.872 51.5138 1.808C52.0471 1.68 52.6764 1.69067 53.4018 1.84C54.1271 1.98933 54.5644 2.208 54.7138 2.496C54.9378 2.912 54.9004 3.25867 54.6018 3.536C54.3031 3.81333 53.9404 3.88267 53.5138 3.744C53.0871 3.60533 52.7244 3.552 52.4258 3.584C52.1271 3.616 51.9244 3.69067 51.8177 3.808C51.7111 3.92533 51.5298 4.24 51.2738 4.752C51.0391 5.264 50.8951 5.65333 50.8418 5.92C50.7884 6.18667 50.7564 6.704 50.7458 7.472C50.7351 8.24 50.7138 8.73067 50.6818 8.944C50.6498 9.15733 50.5698 9.312 50.4418 9.408C50.2071 9.568 49.9724 9.63733 49.7378 9.616C49.5031 9.59467 49.3218 9.48267 49.1938 9.28C49.0871 8.97067 48.9698 8.26133 48.8418 7.152C48.7138 6.04267 48.5644 5.21067 48.3938 4.656C48.2231 4.10133 48.1218 3.67467 48.0898 3.376C48.0578 3.07733 48.0844 2.864 48.1698 2.736C48.2551 2.608 48.4098 2.512 48.6338 2.448C48.8578 2.384 49.0231 2.37333 49.1298 2.416C49.2364 2.45867 49.3644 2.56533 49.5138 2.736C49.6631 2.88533 49.7644 2.992 49.8178 3.056ZM59.9041 4.72C59.2001 4.432 58.7148 4.43733 58.4481 4.736C58.2881 4.93867 58.3041 5.06667 58.4961 5.12C58.6881 5.17333 59.1041 5.22133 59.7441 5.264C60.3628 5.30667 60.6295 5.25333 60.5441 5.104C60.5015 5.008 60.2881 4.88 59.9041 4.72ZM62.9601 5.632C62.9601 5.87733 62.8001 6.13333 62.4801 6.4C62.1708 6.66667 61.8348 6.832 61.4721 6.896C61.1095 6.96 60.4428 6.99733 59.4721 7.008C58.5015 7.01867 57.9415 6.992 57.7921 6.928C57.6428 6.864 57.5681 6.85333 57.5681 6.896L57.7601 7.392C58.0161 8.01067 58.3255 8.35733 58.6881 8.432C59.0508 8.496 59.6055 8.368 60.3521 8.048C61.0988 7.728 61.5521 7.552 61.7121 7.52C61.8828 7.488 62.0748 7.54133 62.2881 7.68C62.5121 7.81867 62.6348 8.03733 62.6561 8.336C62.6775 8.63467 62.5921 8.86933 62.4001 9.04C62.2081 9.21067 61.7921 9.43467 61.1521 9.712C60.5121 9.97867 60.0641 10.1387 59.8081 10.192C59.5521 10.256 59.1735 10.2667 58.6721 10.224C58.1708 10.1813 57.7175 10.0213 57.3121 9.744C56.9068 9.46667 56.5655 9.05067 56.2881 8.496C56.0108 7.94133 55.8508 7.36533 55.8081 6.768C55.7868 6.17067 55.8668 5.65333 56.0481 5.216C56.2295 4.77867 56.5121 4.31467 56.8961 3.824C57.2801 3.33333 57.6161 3.01867 57.9041 2.88C58.1921 2.74133 58.6348 2.69333 59.2321 2.736C59.8295 2.77867 60.3148 2.88533 60.6881 3.056C61.3281 3.376 61.8668 3.78133 62.3041 4.272C62.7415 4.76267 62.9601 5.216 62.9601 5.632ZM67.3255 4.16C67.1868 3.872 67.0642 3.67467 66.9575 3.568C66.8508 3.46133 66.6962 3.408 66.4935 3.408C66.3015 3.408 66.1522 3.50933 66.0455 3.712C65.8855 4.04267 65.8695 4.304 65.9975 4.496C66.1255 4.688 66.5468 4.98667 67.2615 5.392C67.9762 5.79733 68.5148 6.18133 68.8775 6.544C69.2402 6.896 69.4855 7.28533 69.6135 7.712C69.7415 8.13867 69.7735 8.48533 69.7095 8.752C69.6455 9.01867 69.4535 9.30133 69.1335 9.6C68.0455 10.6773 66.7495 10.8053 65.2455 9.984C64.5522 9.61067 64.1308 9.24267 63.9815 8.88C63.8322 8.51733 63.9602 8.18133 64.3655 7.872L64.7655 7.584L65.6935 8.128C66.1842 8.43733 66.5788 8.61333 66.8775 8.656C67.1762 8.69867 67.4215 8.656 67.6135 8.528C67.8162 8.38933 67.9068 8.288 67.8855 8.224C67.8642 8.16 67.7522 8.016 67.5495 7.792C67.3255 7.57867 66.8615 7.25867 66.1575 6.832C65.4535 6.40533 64.9522 6.05333 64.6535 5.776C64.3762 5.49867 64.2055 5.29067 64.1415 5.152C64.0775 5.00267 64.0402 4.76267 64.0295 4.432C64.0295 3.83467 64.2055 3.26933 64.5575 2.736C64.9095 2.20267 65.3308 1.86133 65.8215 1.712C66.0775 1.62667 66.4188 1.60533 66.8455 1.648C67.2828 1.69067 67.6188 1.76533 67.8535 1.872C68.0882 1.97867 68.3602 2.30933 68.6695 2.864C68.9788 3.41867 69.1335 3.81333 69.1335 4.048C69.1335 4.28267 69.0215 4.496 68.7975 4.688C68.5522 4.88 68.3335 4.96533 68.1415 4.944C67.9495 4.92267 67.8002 4.85867 67.6935 4.752C67.5868 4.63467 67.4642 4.43733 67.3255 4.16ZM74.1068 4.16C73.9681 3.872 73.8454 3.67467 73.7388 3.568C73.6321 3.46133 73.4774 3.408 73.2748 3.408C73.0828 3.408 72.9334 3.50933 72.8268 3.712C72.6668 4.04267 72.6508 4.304 72.7788 4.496C72.9068 4.688 73.3281 4.98667 74.0428 5.392C74.7574 5.79733 75.2961 6.18133 75.6588 6.544C76.0214 6.896 76.2668 7.28533 76.3948 7.712C76.5228 8.13867 76.5548 8.48533 76.4908 8.752C76.4268 9.01867 76.2348 9.30133 75.9148 9.6C74.8268 10.6773 73.5308 10.8053 72.0268 9.984C71.3334 9.61067 70.9121 9.24267 70.7628 8.88C70.6134 8.51733 70.7414 8.18133 71.1468 7.872L71.5468 7.584L72.4748 8.128C72.9654 8.43733 73.3601 8.61333 73.6588 8.656C73.9574 8.69867 74.2028 8.656 74.3948 8.528C74.5974 8.38933 74.6881 8.288 74.6668 8.224C74.6454 8.16 74.5334 8.016 74.3307 7.792C74.1068 7.57867 73.6428 7.25867 72.9388 6.832C72.2348 6.40533 71.7334 6.05333 71.4348 5.776C71.1574 5.49867 70.9868 5.29067 70.9228 5.152C70.8588 5.00267 70.8214 4.76267 70.8108 4.432C70.8108 3.83467 70.9868 3.26933 71.3388 2.736C71.6908 2.20267 72.1121 1.86133 72.6028 1.712C72.8588 1.62667 73.2001 1.60533 73.6268 1.648C74.0641 1.69067 74.4001 1.76533 74.6348 1.872C74.8694 1.97867 75.1414 2.30933 75.4508 2.864C75.7601 3.41867 75.9148 3.81333 75.9148 4.048C75.9148 4.28267 75.8028 4.496 75.5788 4.688C75.3334 4.88 75.1148 4.96533 74.9227 4.944C74.7308 4.92267 74.5814 4.85867 74.4748 4.752C74.3681 4.63467 74.2454 4.43733 74.1068 4.16Z" fill="black"/>
</svg>
